<?xml version="1.0" encoding="UTF-8" standalone="no"?>
<svg
   width="288pt"
   height="144pt"
   viewBox="0 0 288 144"
   version="1.1"
   id="svg169"
   sodipodi:docname="model_fit.svg"
   inkscape:version="1.4.3 (0d15f75042, 2025-12-25)"
   xmlns:inkscape="http://www.inkscape.org/namespaces/inkscape"
   xmlns:sodipodi="http://sodipodi.sourceforge.net/DTD/sodipodi-0.dtd"
   xmlns:xlink="http://www.w3.org/1999/xlink"
   xmlns="http://www.w3.org/2000/svg"
   xmlns:svg="http://www.w3.org/2000/svg"
   xmlns:rdf="http://www.w3.org/1999/02/22-rdf-syntax-ns#"
   xmlns:cc="http://creativecommons.org/ns#"
   xmlns:dc="http://purl.org/dc/elements/1.1/">
  <sodipodi:namedview
     id="namedview169"
     pagecolor="#ffffff"
     bordercolor="#000000"
     borderopacity="0.25"
     inkscape:showpageshadow="2"
     inkscape:pageopacity="0.0"
     inkscape:pagecheckerboard="0"
     inkscape:deskcolor="#d1d1d1"
     inkscape:document-units="pt"
     inkscape:zoom="4.7317708"
     inkscape:cx="191.89433"
     inkscape:cy="182.06714"
     inkscape:window-width="3840"
     inkscape:window-height="2045"
     inkscape:window-x="0"
     inkscape:window-y="75"
     inkscape:window-maximized="1"
     inkscape:current-layer="axes_1" />
  <metadata
     id="metadata1">
    <rdf:RDF>
      <cc:Work>
        <dc:type
           rdf:resource="http://purl.org/dc/dcmitype/StillImage" />
        <dc:date>2025-09-02T16:03:43.583658</dc:date>
        <dc:format>image/svg+xml</dc:format>
        <dc:creator>
          <cc:Agent>
            <dc:title>Matplotlib v3.7.2, https://matplotlib.org/</dc:title>
          </cc:Agent>
        </dc:creator>
      </cc:Work>
    </rdf:RDF>
  </metadata>
  <defs
     id="defs1">
    <style
       type="text/css"
       id="style1">*{stroke-linejoin: round; stroke-linecap: butt}</style>
  </defs>
  <g
     id="figure_1">
    <g
       id="patch_1">
      <path
         d="M 0,288 H 288 V 0 H 0 Z"
         style="fill:none"
         id="path1" />
    </g>
    <g
       id="axes_1">
      <g
         id="patch_2">
        <path
           d="M 41.92,107.62 H 274.005 V 16.56 H 41.92 Z"
           style="fill:#ffffff"
           id="path2" />
      </g>
      <g
         id="line2d_1">
        <path
           d="m 46.218515,85.444009 v 5.23997"
           clip-path="url(#pce911d82ee)"
           style="fill:none;stroke:#cc8888;stroke-width:0.8;stroke-linecap:square"
           id="path3" />
      </g>
      <g
         id="line2d_2">
        <path
           d="M 52.690277,91.692373 V 88.865438"
           clip-path="url(#pce911d82ee)"
           style="fill:none;stroke:#cc8888;stroke-width:0.8;stroke-linecap:square"
           id="path4" />
      </g>
      <g
         id="line2d_3">
        <path
           d="m 56.169907,87.087798 v 0.799877"
           clip-path="url(#pce911d82ee)"
           style="fill:none;stroke:#cc8888;stroke-width:0.8;stroke-linecap:square"
           id="path5" />
      </g>
      <g
         id="line2d_4">
        <path
           d="m 62.091579,77.56695 v 8.656757"
           clip-path="url(#pce911d82ee)"
           style="fill:none;stroke:#cc8888;stroke-width:0.8;stroke-linecap:square"
           id="path6" />
      </g>
      <g
         id="line2d_5">
        <path
           d="m 69.740727,77.432391 v 6.641933"
           clip-path="url(#pce911d82ee)"
           style="fill:none;stroke:#cc8888;stroke-width:0.8;stroke-linecap:square"
           id="path7" />
      </g>
      <g
         id="line2d_6">
        <path
           d="M 76.4988,92.581184 V 82.175331"
           clip-path="url(#pce911d82ee)"
           style="fill:none;stroke:#cc8888;stroke-width:0.8;stroke-linecap:square"
           id="path8" />
      </g>
      <g
         id="line2d_7">
        <path
           d="m 84.276781,78.439394 v 1.550353"
           clip-path="url(#pce911d82ee)"
           style="fill:none;stroke:#cc8888;stroke-width:0.8;stroke-linecap:square"
           id="path9" />
      </g>
      <g
         id="line2d_8">
        <path
           d="M 89.875218,83.368638 V 78.416607"
           clip-path="url(#pce911d82ee)"
           style="fill:none;stroke:#cc8888;stroke-width:0.8;stroke-linecap:square"
           id="path10" />
      </g>
      <g
         id="line2d_9">
        <path
           d="M 99.866298,79.940356 V 75.60915"
           clip-path="url(#pce911d82ee)"
           style="fill:none;stroke:#cc8888;stroke-width:0.8;stroke-linecap:square"
           id="path11" />
      </g>
      <g
         id="line2d_10">
        <path
           d="m 100.59911,76.591122 v -1.18789"
           clip-path="url(#pce911d82ee)"
           style="fill:none;stroke:#cc8888;stroke-width:0.8;stroke-linecap:square"
           id="path12" />
      </g>
      <g
         id="line2d_11">
        <path
           d="M 107.73464,75.969552 V 73.398174"
           clip-path="url(#pce911d82ee)"
           style="fill:none;stroke:#cc8888;stroke-width:0.8;stroke-linecap:square"
           id="path13" />
      </g>
      <g
         id="line2d_12">
        <path
           d="m 113.87479,66.088283 v 5.584532"
           clip-path="url(#pce911d82ee)"
           style="fill:none;stroke:#cc8888;stroke-width:0.8;stroke-linecap:square"
           id="path14" />
      </g>
      <g
         id="line2d_13">
        <path
           d="m 123.49213,67.277948 v 1.692431"
           clip-path="url(#pce911d82ee)"
           style="fill:none;stroke:#cc8888;stroke-width:0.8;stroke-linecap:square"
           id="path15" />
      </g>
      <g
         id="line2d_14">
        <path
           d="M 127.36139,69.944802 V 67.88313"
           clip-path="url(#pce911d82ee)"
           style="fill:none;stroke:#cc8888;stroke-width:0.8;stroke-linecap:square"
           id="path16" />
      </g>
      <g
         id="line2d_15">
        <path
           d="m 135.18149,65.534293 v 0.151418"
           clip-path="url(#pce911d82ee)"
           style="fill:none;stroke:#cc8888;stroke-width:0.8;stroke-linecap:square"
           id="path17" />
      </g>
      <g
         id="line2d_16">
        <path
           d="M 140.19785,64.628655 V 64.276134"
           clip-path="url(#pce911d82ee)"
           style="fill:none;stroke:#cc8888;stroke-width:0.8;stroke-linecap:square"
           id="path18" />
      </g>
      <g
         id="line2d_17">
        <path
           d="m 146.09373,55.733594 v 6.885817"
           clip-path="url(#pce911d82ee)"
           style="fill:none;stroke:#cc8888;stroke-width:0.8;stroke-linecap:square"
           id="path19" />
      </g>
      <g
         id="line2d_18">
        <path
           d="M 152.22726,64.123875 V 60.895913"
           clip-path="url(#pce911d82ee)"
           style="fill:none;stroke:#cc8888;stroke-width:0.8;stroke-linecap:square"
           id="path20" />
      </g>
      <g
         id="line2d_19">
        <path
           d="m 162.19373,57.849573 v 0.245799"
           clip-path="url(#pce911d82ee)"
           style="fill:none;stroke:#cc8888;stroke-width:0.8;stroke-linecap:square"
           id="path21" />
      </g>
      <g
         id="line2d_20">
        <path
           d="M 165.30014,63.959976 V 57.222481"
           clip-path="url(#pce911d82ee)"
           style="fill:none;stroke:#cc8888;stroke-width:0.8;stroke-linecap:square"
           id="path22" />
      </g>
      <g
         id="line2d_21">
        <path
           d="M 172.12344,72.131666 V 55.305161"
           clip-path="url(#pce911d82ee)"
           style="fill:none;stroke:#cc8888;stroke-width:0.8;stroke-linecap:square"
           id="path23" />
      </g>
      <g
         id="line2d_22">
        <path
           d="M 179.68002,50.293519 V 53.18179"
           clip-path="url(#pce911d82ee)"
           style="fill:none;stroke:#cc8888;stroke-width:0.8;stroke-linecap:square"
           id="path24" />
      </g>
      <g
         id="line2d_23">
        <path
           d="m 189.04251,46.074971 v 4.475994"
           clip-path="url(#pce911d82ee)"
           style="fill:none;stroke:#cc8888;stroke-width:0.8;stroke-linecap:square"
           id="path25" />
      </g>
      <g
         id="line2d_24">
        <path
           d="M 190.82252,55.269391 V 50.050788"
           clip-path="url(#pce911d82ee)"
           style="fill:none;stroke:#cc8888;stroke-width:0.8;stroke-linecap:square"
           id="path26" />
      </g>
      <g
         id="line2d_25">
        <path
           d="M 202.0454,33.462337 V 46.8972"
           clip-path="url(#pce911d82ee)"
           style="fill:none;stroke:#cc8888;stroke-width:0.8;stroke-linecap:square"
           id="path27" />
      </g>
      <g
         id="line2d_26">
        <path
           d="M 203.70967,55.547842 V 46.429547"
           clip-path="url(#pce911d82ee)"
           style="fill:none;stroke:#cc8888;stroke-width:0.8;stroke-linecap:square"
           id="path28" />
      </g>
      <g
         id="line2d_27">
        <path
           d="M 215.83199,42.636073 V 43.02322"
           clip-path="url(#pce911d82ee)"
           style="fill:none;stroke:#cc8888;stroke-width:0.8;stroke-linecap:square"
           id="path29" />
      </g>
      <g
         id="line2d_28">
        <path
           d="M 219.00505,43.054211 V 42.1316"
           clip-path="url(#pce911d82ee)"
           style="fill:none;stroke:#cc8888;stroke-width:0.8;stroke-linecap:square"
           id="path30" />
      </g>
      <g
         id="line2d_29">
        <path
           d="m 228.72754,29.561145 v 9.838471"
           clip-path="url(#pce911d82ee)"
           style="fill:none;stroke:#cc8888;stroke-width:0.8;stroke-linecap:square"
           id="path31" />
      </g>
      <g
         id="line2d_30">
        <path
           d="m 232.77668,28.675185 v 9.586638"
           clip-path="url(#pce911d82ee)"
           style="fill:none;stroke:#cc8888;stroke-width:0.8;stroke-linecap:square"
           id="path32" />
      </g>
      <g
         id="line2d_31">
        <path
           d="m 240.09005,34.35898 v 1.847813"
           clip-path="url(#pce911d82ee)"
           style="fill:none;stroke:#cc8888;stroke-width:0.8;stroke-linecap:square"
           id="path33" />
      </g>
      <g
         id="line2d_32">
        <path
           d="m 242.02361,32.397003 v 3.266468"
           clip-path="url(#pce911d82ee)"
           style="fill:none;stroke:#cc8888;stroke-width:0.8;stroke-linecap:square"
           id="path34" />
      </g>
      <g
         id="line2d_33">
        <path
           d="m 250.04098,37.56562 v -4.155"
           clip-path="url(#pce911d82ee)"
           style="fill:none;stroke:#cc8888;stroke-width:0.8;stroke-linecap:square"
           id="path35" />
      </g>
      <g
         id="line2d_34">
        <path
           d="M 255.43947,42.50642 V 31.893665"
           clip-path="url(#pce911d82ee)"
           style="fill:none;stroke:#cc8888;stroke-width:0.8;stroke-linecap:square"
           id="path36" />
      </g>
      <g
         id="line2d_35">
        <path
           d="M 263.02055,30.214136 V 29.763409"
           clip-path="url(#pce911d82ee)"
           style="fill:none;stroke:#cc8888;stroke-width:0.8;stroke-linecap:square"
           id="path37" />
      </g>
      <g
         id="line2d_36">
        <path
           d="m 268.32361,25.488383 v 2.784885"
           clip-path="url(#pce911d82ee)"
           style="fill:none;stroke:#cc8888;stroke-width:0.8;stroke-linecap:square"
           id="path38" />
      </g>
      <g
         id="matplotlib.axis_1">
        <g
           id="xtick_1">
          <g
             id="line2d_37">
            <path
               d="M 41.92,107.62 V 16.56"
               clip-path="url(#pce911d82ee)"
               style="fill:none;stroke:#b0b0b0;stroke-width:0.8;stroke-linecap:square"
               id="path39" />
          </g>
          <g
             id="line2d_38">
            <defs
               id="defs39">
              <path
                 id="m8b6dbabc2d"
                 d="M 0,0 V 3.5"
                 style="stroke:#000000;stroke-width:0.8" />
            </defs>
            <g
               id="g39">
              <use
                 xlink:href="#m8b6dbabc2d"
                 x="41.919998"
                 y="107.62"
                 style="stroke:#000000;stroke-width:0.8"
                 id="use39" />
            </g>
          </g>
          <g
             id="text_1">
            <!-- 0 -->
            <g
               transform="matrix(0.1,0,0,-0.1,38.73875,122.21844)"
               id="g40">
              <defs
                 id="defs40">
                <path
                   id="DejaVuSans-30"
                   d="m 2034,4250 q -487,0 -733,-480 -245,-479 -245,-1442 0,-959 245,-1439 246,-480 733,-480 491,0 736,480 246,480 246,1439 0,963 -246,1442 -245,480 -736,480 z m 0,500 q 785,0 1199,-621 414,-620 414,-1801 0,-1178 -414,-1799 -414,-620 -1199,-620 -784,0 -1198,620 -414,621 -414,1799 0,1181 414,1801 414,621 1198,621 z"
                   transform="scale(0.015625)" />
              </defs>
              <use
                 xlink:href="#DejaVuSans-30"
                 id="use40" />
            </g>
          </g>
        </g>
        <g
           id="xtick_2">
          <g
             id="line2d_39">
            <path
               d="M 80.600833,107.62 V 16.56"
               clip-path="url(#pce911d82ee)"
               style="fill:none;stroke:#b0b0b0;stroke-width:0.8;stroke-linecap:square"
               id="path40" />
          </g>
          <g
             id="line2d_40">
            <g
               id="g41">
              <use
                 xlink:href="#m8b6dbabc2d"
                 x="80.60083"
                 y="107.62"
                 style="stroke:#000000;stroke-width:0.8"
                 id="use41" />
            </g>
          </g>
          <g
             id="text_2">
            <!-- 1 -->
            <g
               transform="matrix(0.1,0,0,-0.1,77.419583,122.21844)"
               id="g42">
              <defs
                 id="defs41">
                <path
                   id="DejaVuSans-31"
                   d="M 794,531 H 1825 V 4091 L 703,3866 v 575 l 1116,225 h 631 V 531 H 3481 V 0 H 794 Z"
                   transform="scale(0.015625)" />
              </defs>
              <use
                 xlink:href="#DejaVuSans-31"
                 id="use42" />
            </g>
          </g>
        </g>
        <g
           id="xtick_3">
          <g
             id="line2d_41">
            <path
               d="M 119.28167,107.62 V 16.56"
               clip-path="url(#pce911d82ee)"
               style="fill:none;stroke:#b0b0b0;stroke-width:0.8;stroke-linecap:square"
               id="path42" />
          </g>
          <g
             id="line2d_42">
            <g
               id="g43">
              <use
                 xlink:href="#m8b6dbabc2d"
                 x="119.28167"
                 y="107.62"
                 style="stroke:#000000;stroke-width:0.8"
                 id="use43" />
            </g>
          </g>
          <g
             id="text_3">
            <!-- 2 -->
            <g
               transform="matrix(0.1,0,0,-0.1,116.10042,122.21844)"
               id="g44">
              <defs
                 id="defs43">
                <path
                   id="DejaVuSans-32"
                   d="M 1228,531 H 3431 V 0 H 469 v 531 q 359,372 979,998 621,627 780,809 303,340 423,576 121,236 121,464 0,372 -261,606 -261,235 -680,235 -297,0 -627,-103 -329,-103 -704,-313 v 638 q 381,153 712,231 332,78 607,78 725,0 1156,-363 431,-362 431,-968 0,-288 -108,-546 -107,-257 -392,-607 -78,-91 -497,-524 Q 1991,1309 1228,531 Z"
                   transform="scale(0.015625)" />
              </defs>
              <use
                 xlink:href="#DejaVuSans-32"
                 id="use44" />
            </g>
          </g>
        </g>
        <g
           id="xtick_4">
          <g
             id="line2d_43">
            <path
               d="M 157.9625,107.62 V 16.56"
               clip-path="url(#pce911d82ee)"
               style="fill:none;stroke:#b0b0b0;stroke-width:0.8;stroke-linecap:square"
               id="path44" />
          </g>
          <g
             id="line2d_44">
            <g
               id="g45">
              <use
                 xlink:href="#m8b6dbabc2d"
                 x="157.96249"
                 y="107.62"
                 style="stroke:#000000;stroke-width:0.8"
                 id="use45" />
            </g>
          </g>
          <g
             id="text_4">
            <!-- 3 -->
            <g
               transform="matrix(0.1,0,0,-0.1,154.78125,122.21844)"
               id="g46">
              <defs
                 id="defs45">
                <path
                   id="DejaVuSans-33"
                   d="m 2597,2516 q 453,-97 707,-404 255,-306 255,-756 0,-690 -475,-1069 -475,-378 -1350,-378 -293,0 -604,58 -311,58 -642,174 v 609 q 262,-153 574,-231 313,-78 654,-78 593,0 904,234 311,234 311,681 0,413 -289,645 -289,233 -804,233 h -544 v 519 h 569 q 465,0 712,186 247,186 247,536 0,359 -255,551 -254,193 -729,193 -260,0 -557,-57 -297,-56 -653,-174 v 562 q 360,100 674,150 314,50 592,50 719,0 1137,-327 419,-326 419,-882 0,-388 -222,-655 -222,-267 -631,-370 z"
                   transform="scale(0.015625)" />
              </defs>
              <use
                 xlink:href="#DejaVuSans-33"
                 id="use46" />
            </g>
          </g>
        </g>
        <g
           id="xtick_5">
          <g
             id="line2d_45">
            <path
               d="M 196.64333,107.62 V 16.56"
               clip-path="url(#pce911d82ee)"
               style="fill:none;stroke:#b0b0b0;stroke-width:0.8;stroke-linecap:square"
               id="path46" />
          </g>
          <g
             id="line2d_46">
            <g
               id="g47">
              <use
                 xlink:href="#m8b6dbabc2d"
                 x="196.64333"
                 y="107.62"
                 style="stroke:#000000;stroke-width:0.8"
                 id="use47" />
            </g>
          </g>
          <g
             id="text_5">
            <!-- 4 -->
            <g
               transform="matrix(0.1,0,0,-0.1,193.46208,122.21844)"
               id="g48">
              <defs
                 id="defs47">
                <path
                   id="DejaVuSans-34"
                   d="M 2419,4116 825,1625 h 1594 z m -166,550 h 794 V 1625 h 666 V 1100 H 3047 V 0 H 2419 V 1100 H 313 v 609 z"
                   transform="scale(0.015625)" />
              </defs>
              <use
                 xlink:href="#DejaVuSans-34"
                 id="use48" />
            </g>
          </g>
        </g>
        <g
           id="xtick_6">
          <g
             id="line2d_47">
            <path
               d="M 235.32417,107.62 V 16.56"
               clip-path="url(#pce911d82ee)"
               style="fill:none;stroke:#b0b0b0;stroke-width:0.8;stroke-linecap:square"
               id="path48" />
          </g>
          <g
             id="line2d_48">
            <g
               id="g49">
              <use
                 xlink:href="#m8b6dbabc2d"
                 x="235.32417"
                 y="107.62"
                 style="stroke:#000000;stroke-width:0.8"
                 id="use49" />
            </g>
          </g>
          <g
             id="text_6">
            <!-- 5 -->
            <g
               transform="matrix(0.1,0,0,-0.1,232.14292,122.21844)"
               id="g50">
              <defs
                 id="defs49">
                <path
                   id="DejaVuSans-35"
                   d="M 691,4666 H 3169 V 4134 H 1269 V 2991 q 137,47 274,70 138,23 276,23 781,0 1237,-428 457,-428 457,-1159 Q 3513,744 3044,326 2575,-91 1722,-91 1428,-91 1123,-41 819,9 494,109 v 635 q 281,-153 581,-228 300,-75 634,-75 541,0 856,284 316,284 316,772 0,487 -316,771 -315,285 -856,285 -253,0 -505,-56 -251,-56 -513,-175 z"
                   transform="scale(0.015625)" />
              </defs>
              <use
                 xlink:href="#DejaVuSans-35"
                 id="use50" />
            </g>
          </g>
        </g>
        <g
           id="xtick_7">
          <g
             id="line2d_49">
            <path
               d="M 274.005,107.62 V 16.56"
               clip-path="url(#pce911d82ee)"
               style="fill:none;stroke:#b0b0b0;stroke-width:0.8;stroke-linecap:square"
               id="path50" />
          </g>
          <g
             id="line2d_50">
            <g
               id="g51">
              <use
                 xlink:href="#m8b6dbabc2d"
                 x="274.005"
                 y="107.62"
                 style="stroke:#000000;stroke-width:0.8"
                 id="use51" />
            </g>
          </g>
          <g
             id="text_7">
            <!-- 6 -->
            <g
               transform="matrix(0.1,0,0,-0.1,270.82375,122.21844)"
               id="g52">
              <defs
                 id="defs51">
                <path
                   id="DejaVuSans-36"
                   d="m 2113,2584 q -425,0 -674,-291 -248,-290 -248,-796 0,-503 248,-796 249,-292 674,-292 425,0 673,292 248,293 248,796 0,506 -248,796 -248,291 -673,291 z m 1253,1979 v -575 q -238,112 -480,171 -242,60 -480,60 -625,0 -955,-422 -329,-422 -376,-1275 184,272 462,417 279,145 613,145 703,0 1111,-427 408,-426 408,-1160 0,-719 -425,-1154 -425,-434 -1131,-434 -810,0 -1238,620 -428,621 -428,1799 0,1106 525,1764 525,658 1409,658 238,0 480,-47 242,-47 505,-140 z"
                   transform="scale(0.015625)" />
              </defs>
              <use
                 xlink:href="#DejaVuSans-36"
                 id="use52" />
            </g>
          </g>
        </g>
        <g
           id="text_8">
          <!-- $x$ -->
          <g
             transform="matrix(0.1,0,0,-0.1,268.005,135.89656)"
             id="g53">
            <defs
               id="defs52">
              <path
                 id="DejaVuSans-Oblique-78"
                 d="M 3841,3500 2234,1784 3219,0 H 2559 L 1819,1388 531,0 H -166 L 1556,1844 641,3500 h 659 l 672,-1266 1172,1266 z"
                 transform="scale(0.015625)" />
            </defs>
            <use
               xlink:href="#DejaVuSans-Oblique-78"
               transform="translate(0,0.3125)"
               id="use53" />
          </g>
        </g>
      </g>
      <g
         id="matplotlib.axis_2">
        <g
           id="ytick_1">
          <g
             id="line2d_51">
            <path
               d="M 41.92,107.62 H 274.005"
               clip-path="url(#pce911d82ee)"
               style="fill:none;stroke:#b0b0b0;stroke-width:0.8;stroke-linecap:square"
               id="path53" />
          </g>
          <g
             id="line2d_52">
            <defs
               id="defs53">
              <path
                 id="m691a9846f4"
                 d="M 0,0 H -3.5"
                 style="stroke:#000000;stroke-width:0.8" />
            </defs>
            <g
               id="g54">
              <use
                 xlink:href="#m691a9846f4"
                 x="41.919998"
                 y="107.62"
                 style="stroke:#000000;stroke-width:0.8"
                 id="use54" />
            </g>
          </g>
          <g
             id="text_9">
            <!-- 0 -->
            <g
               transform="matrix(0.1,0,0,-0.1,28.5575,111.41922)"
               id="g55">
              <use
                 xlink:href="#DejaVuSans-30"
                 id="use55" />
            </g>
          </g>
        </g>
        <g
           id="ytick_2">
          <g
             id="line2d_53">
            <path
               d="M 41.92,77.266667 H 274.005"
               clip-path="url(#pce911d82ee)"
               style="fill:none;stroke:#b0b0b0;stroke-width:0.8;stroke-linecap:square"
               id="path55" />
          </g>
          <g
             id="line2d_54">
            <g
               id="g56">
              <use
                 xlink:href="#m691a9846f4"
                 x="41.919998"
                 y="77.26667"
                 style="stroke:#000000;stroke-width:0.8"
                 id="use56" />
            </g>
          </g>
          <g
             id="text_10">
            <!-- 1 -->
            <g
               transform="matrix(0.1,0,0,-0.1,28.5575,81.065885)"
               id="g57">
              <use
                 xlink:href="#DejaVuSans-31"
                 id="use57" />
            </g>
          </g>
        </g>
        <g
           id="ytick_3">
          <g
             id="line2d_55">
            <path
               d="M 41.92,46.913333 H 274.005"
               clip-path="url(#pce911d82ee)"
               style="fill:none;stroke:#b0b0b0;stroke-width:0.8;stroke-linecap:square"
               id="path57" />
          </g>
          <g
             id="line2d_56">
            <g
               id="g58">
              <use
                 xlink:href="#m691a9846f4"
                 x="41.919998"
                 y="46.913334"
                 style="stroke:#000000;stroke-width:0.8"
                 id="use58" />
            </g>
          </g>
          <g
             id="text_11">
            <!-- 2 -->
            <g
               transform="matrix(0.1,0,0,-0.1,28.5575,50.712552)"
               id="g59">
              <use
                 xlink:href="#DejaVuSans-32"
                 id="use59" />
            </g>
          </g>
        </g>
        <g
           id="ytick_4">
          <g
             id="line2d_57">
            <path
               d="M 41.92,16.56 H 274.005"
               clip-path="url(#pce911d82ee)"
               style="fill:none;stroke:#b0b0b0;stroke-width:0.8;stroke-linecap:square"
               id="path59" />
          </g>
          <g
             id="line2d_58">
            <g
               id="g60">
              <use
                 xlink:href="#m691a9846f4"
                 x="41.919998"
                 y="16.559999"
                 style="stroke:#000000;stroke-width:0.8"
                 id="use60" />
            </g>
          </g>
          <g
             id="text_12">
            <!-- 3 -->
            <g
               transform="matrix(0.1,0,0,-0.1,28.5575,20.359219)"
               id="g61">
              <use
                 xlink:href="#DejaVuSans-33"
                 id="use61" />
            </g>
          </g>
        </g>
        <g
           id="text_13">
          <!-- $y$ -->
          <g
             transform="matrix(0.1,0,0,-0.1,18.5575,14.46)"
             id="g62">
            <defs
               id="defs61">
              <path
                 id="DejaVuSans-Oblique-79"
                 d="m 1588,-325 q -400,-672 -652,-839 -252,-167 -642,-167 h -453 l 96,481 h 332 q 240,0 409,131 169,131 378,513 l 178,334 -775,3372 h 610 L 1650,819 3256,3500 h 603 z"
                 transform="scale(0.015625)" />
            </defs>
            <use
               xlink:href="#DejaVuSans-Oblique-79"
               transform="translate(0,0.3125)"
               id="use62" />
          </g>
        </g>
      </g>
      <g
         id="line2d_59">
        <path
           d="M 41.92,91.891846 274.005,26.676819"
           clip-path="url(#pce911d82ee)"
           style="fill:none;stroke:#aa2222;stroke-width:1.5;stroke-linecap:square"
           id="path62" />
      </g>
      <g
         id="patch_3">
        <path
           d="M 41.92,107.62 V 16.56"
           style="fill:none;stroke:#000000;stroke-width:0.8;stroke-linecap:square;stroke-linejoin:miter"
           id="path63" />
      </g>
      <g
         id="patch_4">
        <path
           d="M 274.005,107.62 V 16.56"
           style="fill:none;stroke:#000000;stroke-width:0.8;stroke-linecap:square;stroke-linejoin:miter"
           id="path64" />
      </g>
      <g
         id="patch_5">
        <path
           d="M 41.92,107.62 H 274.005"
           style="fill:none;stroke:#000000;stroke-width:0.8;stroke-linecap:square;stroke-linejoin:miter"
           id="path65" />
      </g>
      <g
         id="patch_6">
        <path
           d="M 41.92,16.56 H 274.005"
           style="fill:none;stroke:#000000;stroke-width:0.8;stroke-linecap:square;stroke-linejoin:miter"
           id="path66" />
      </g>
      <g
         id="PathCollection_1">
        <defs
           id="defs66">
          <path
             id="m1d1abc29c1"
             d="m 0,1.581139 c 0.419323,0 0.821528,-0.166599 1.118034,-0.463105 C 1.41454,0.821528 1.581139,0.419323 1.581139,0 1.581139,-0.419323 1.41454,-0.821528 1.118034,-1.118034 0.821528,-1.41454 0.419323,-1.581139 0,-1.581139 c -0.419323,0 -0.821528,0.166599 -1.118034,0.463105 C -1.41454,-0.821528 -1.581139,-0.419323 -1.581139,0 c 0,0.419323 0.166599,0.821528 0.463105,1.118034 C -0.821528,1.41454 -0.419323,1.581139 0,1.581139 Z"
             style="stroke:#000000" />
        </defs>
        <g
           clip-path="url(#pce911d82ee)"
           id="g101">
          <use
             xlink:href="#m1d1abc29c1"
             x="46.218513"
             y="85.444008"
             style="stroke:#000000"
             id="use66" />
          <use
             xlink:href="#m1d1abc29c1"
             x="52.690277"
             y="91.692375"
             style="stroke:#000000"
             id="use67" />
          <use
             xlink:href="#m1d1abc29c1"
             x="56.169907"
             y="87.087799"
             style="stroke:#000000"
             id="use68" />
          <use
             xlink:href="#m1d1abc29c1"
             x="62.091579"
             y="77.566948"
             style="stroke:#000000"
             id="use69" />
          <use
             xlink:href="#m1d1abc29c1"
             x="69.74073"
             y="77.432388"
             style="stroke:#000000"
             id="use70" />
          <use
             xlink:href="#m1d1abc29c1"
             x="76.498802"
             y="92.581184"
             style="stroke:#000000"
             id="use71" />
          <use
             xlink:href="#m1d1abc29c1"
             x="84.276779"
             y="78.439392"
             style="stroke:#000000"
             id="use72" />
          <use
             xlink:href="#m1d1abc29c1"
             x="89.875221"
             y="83.368637"
             style="stroke:#000000"
             id="use73" />
          <use
             xlink:href="#m1d1abc29c1"
             x="99.866295"
             y="79.940353"
             style="stroke:#000000"
             id="use74" />
          <use
             xlink:href="#m1d1abc29c1"
             x="100.59911"
             y="76.591125"
             style="stroke:#000000"
             id="use75" />
          <use
             xlink:href="#m1d1abc29c1"
             x="107.73464"
             y="75.969551"
             style="stroke:#000000"
             id="use76" />
          <use
             xlink:href="#m1d1abc29c1"
             x="113.87479"
             y="66.08828"
             style="stroke:#000000"
             id="use77" />
          <use
             xlink:href="#m1d1abc29c1"
             x="123.49213"
             y="67.277946"
             style="stroke:#000000"
             id="use78" />
          <use
             xlink:href="#m1d1abc29c1"
             x="127.3614"
             y="69.944801"
             style="stroke:#000000"
             id="use79" />
          <use
             xlink:href="#m1d1abc29c1"
             x="135.18149"
             y="65.534294"
             style="stroke:#000000"
             id="use80" />
          <use
             xlink:href="#m1d1abc29c1"
             x="140.19785"
             y="64.628654"
             style="stroke:#000000"
             id="use81" />
          <use
             xlink:href="#m1d1abc29c1"
             x="146.09373"
             y="55.733593"
             style="stroke:#000000"
             id="use82" />
          <use
             xlink:href="#m1d1abc29c1"
             x="152.22726"
             y="64.123878"
             style="stroke:#000000"
             id="use83" />
          <use
             xlink:href="#m1d1abc29c1"
             x="162.19373"
             y="57.849571"
             style="stroke:#000000"
             id="use84" />
          <use
             xlink:href="#m1d1abc29c1"
             x="165.30014"
             y="63.959976"
             style="stroke:#000000"
             id="use85" />
          <use
             xlink:href="#m1d1abc29c1"
             x="172.12344"
             y="72.131668"
             style="stroke:#000000"
             id="use86" />
          <use
             xlink:href="#m1d1abc29c1"
             x="179.68002"
             y="50.293518"
             style="stroke:#000000"
             id="use87" />
          <use
             xlink:href="#m1d1abc29c1"
             x="189.04251"
             y="46.07497"
             style="stroke:#000000"
             id="use88" />
          <use
             xlink:href="#m1d1abc29c1"
             x="190.82253"
             y="55.26939"
             style="stroke:#000000"
             id="use89" />
          <use
             xlink:href="#m1d1abc29c1"
             x="202.04539"
             y="33.462337"
             style="stroke:#000000"
             id="use90" />
          <use
             xlink:href="#m1d1abc29c1"
             x="203.70967"
             y="55.54784"
             style="stroke:#000000"
             id="use91" />
          <use
             xlink:href="#m1d1abc29c1"
             x="215.83199"
             y="42.636074"
             style="stroke:#000000"
             id="use92" />
          <use
             xlink:href="#m1d1abc29c1"
             x="219.00505"
             y="43.054211"
             style="stroke:#000000"
             id="use93" />
          <use
             xlink:href="#m1d1abc29c1"
             x="228.72754"
             y="29.561146"
             style="stroke:#000000"
             id="use94" />
          <use
             xlink:href="#m1d1abc29c1"
             x="232.77669"
             y="28.675184"
             style="stroke:#000000"
             id="use95" />
          <use
             xlink:href="#m1d1abc29c1"
             x="240.09006"
             y="34.358978"
             style="stroke:#000000"
             id="use96" />
          <use
             xlink:href="#m1d1abc29c1"
             x="242.02361"
             y="32.397003"
             style="stroke:#000000"
             id="use97" />
          <use
             xlink:href="#m1d1abc29c1"
             x="250.04099"
             y="37.56562"
             style="stroke:#000000"
             id="use98" />
          <use
             xlink:href="#m1d1abc29c1"
             x="255.43947"
             y="42.50642"
             style="stroke:#000000"
             id="use99" />
          <use
             xlink:href="#m1d1abc29c1"
             x="263.02054"
             y="30.214136"
             style="stroke:#000000"
             id="use100" />
          <use
             xlink:href="#m1d1abc29c1"
             x="268.32361"
             y="25.488382"
             style="stroke:#000000"
             id="use101" />
        </g>
      </g>
    </g>
  </g>
  <defs
     id="defs169">
    <clipPath
       id="pce911d82ee">
      <rect
         x="41.919998"
         y="16.559999"
         width="232.08501"
         height="91.059998"
         id="rect168" />
    </clipPath>
    <clipPath
       id="p5817220dd6">
      <rect
         x="41.919998"
         y="154.98"
         width="232.08501"
         height="91.059998"
         id="rect169" />
    </clipPath>
  </defs>
</svg>
