<?xml version="1.0" encoding="UTF-8" standalone="no"?>
<svg
   xmlns:dc="http://purl.org/dc/elements/1.1/"
   xmlns:cc="http://creativecommons.org/ns#"
   xmlns:rdf="http://www.w3.org/1999/02/22-rdf-syntax-ns#"
   xmlns:svg="http://www.w3.org/2000/svg"
   xmlns="http://www.w3.org/2000/svg"
   id="svg8"
   version="1.1"
   viewBox="0 0 94.999999 75"
   height="75mm"
   width="95mm">
  <defs
     id="defs2">
    <marker
       orient="auto"
       refY="0"
       refX="0"
       id="marker1561"
       style="overflow:visible">
      <path
         id="path1559"
         d="M 0,0 5,-5 -12.5,0 5,5 Z"
         style="fill:#000000;fill-opacity:1;fill-rule:evenodd;stroke:#000000;stroke-width:1.00000003pt;stroke-opacity:1"
         transform="matrix(0.8,0,0,0.8,10,0)" />
    </marker>
    <marker
       style="overflow:visible"
       id="marker1461"
       refX="0"
       refY="0"
       orient="auto">
      <path
         transform="matrix(0.8,0,0,0.8,10,0)"
         style="fill:#000000;fill-opacity:1;fill-rule:evenodd;stroke:#000000;stroke-width:1.00000003pt;stroke-opacity:1"
         d="M 0,0 5,-5 -12.5,0 5,5 Z"
         id="path1459" />
    </marker>
    <marker
       orient="auto"
       refY="0"
       refX="0"
       id="marker1295"
       style="overflow:visible">
      <path
         id="path1293"
         d="M 0,0 5,-5 -12.5,0 5,5 Z"
         style="fill:#000000;fill-opacity:1;fill-rule:evenodd;stroke:#000000;stroke-width:1.00000003pt;stroke-opacity:1"
         transform="matrix(-0.8,0,0,-0.8,-10,0)" />
    </marker>
    <marker
       orient="auto"
       refY="0"
       refX="0"
       id="marker1111"
       style="overflow:visible">
      <path
         id="path1109"
         d="M 0,0 5,-5 -12.5,0 5,5 Z"
         style="fill:#000000;fill-opacity:1;fill-rule:evenodd;stroke:#000000;stroke-width:1.00000003pt;stroke-opacity:1"
         transform="matrix(0.8,0,0,0.8,10,0)" />
    </marker>
    <marker
       style="overflow:visible"
       id="marker927"
       refX="0"
       refY="0"
       orient="auto">
      <path
         transform="matrix(0.8,0,0,0.8,10,0)"
         style="fill:#000000;fill-opacity:1;fill-rule:evenodd;stroke:#000000;stroke-width:1.00000003pt;stroke-opacity:1"
         d="M 0,0 5,-5 -12.5,0 5,5 Z"
         id="path925" />
    </marker>
    <marker
       style="overflow:visible"
       id="marker4181"
       refX="0"
       refY="0"
       orient="auto">
      <path
         transform="matrix(-0.8,0,0,-0.8,-10,0)"
         style="fill:#000000;fill-opacity:1;fill-rule:evenodd;stroke:#000000;stroke-width:1.00000003pt;stroke-opacity:1"
         d="M 0,0 5,-5 -12.5,0 5,5 Z"
         id="path4179" />
    </marker>
    <marker
       style="overflow:visible"
       id="marker3618"
       refX="0"
       refY="0"
       orient="auto">
      <path
         transform="matrix(-0.8,0,0,-0.8,-10,0)"
         style="fill:#000000;fill-opacity:1;fill-rule:evenodd;stroke:#000000;stroke-width:1.00000003pt;stroke-opacity:1"
         d="M 0,0 5,-5 -12.5,0 5,5 Z"
         id="path3616" />
    </marker>
    <marker
       orient="auto"
       refY="0"
       refX="0"
       id="marker3398"
       style="overflow:visible">
      <path
         id="path3396"
         d="M 0,0 5,-5 -12.5,0 5,5 Z"
         style="fill:#000000;fill-opacity:1;fill-rule:evenodd;stroke:#000000;stroke-width:1.00000003pt;stroke-opacity:1"
         transform="matrix(0.8,0,0,0.8,10,0)" />
    </marker>
    <marker
       orient="auto"
       refY="0"
       refX="0"
       id="marker3282"
       style="overflow:visible">
      <path
         id="path3280"
         d="M 0,0 5,-5 -12.5,0 5,5 Z"
         style="fill:#000000;fill-opacity:1;fill-rule:evenodd;stroke:#000000;stroke-width:1.00000003pt;stroke-opacity:1"
         transform="matrix(-0.8,0,0,-0.8,-10,0)" />
    </marker>
    <marker
       style="overflow:visible"
       id="Arrow1Lstart"
       refX="0"
       refY="0"
       orient="auto">
      <path
         transform="matrix(0.8,0,0,0.8,10,0)"
         style="fill:#000000;fill-opacity:1;fill-rule:evenodd;stroke:#000000;stroke-width:1.00000003pt;stroke-opacity:1"
         d="M 0,0 5,-5 -12.5,0 5,5 Z"
         id="path2813" />
    </marker>
    <marker
       style="overflow:visible"
       id="Arrow1Lend"
       refX="0"
       refY="0"
       orient="auto">
      <path
         transform="matrix(-0.8,0,0,-0.8,-10,0)"
         style="fill:#000000;fill-opacity:1;fill-rule:evenodd;stroke:#000000;stroke-width:1.00000003pt;stroke-opacity:1"
         d="M 0,0 5,-5 -12.5,0 5,5 Z"
         id="path918" />
    </marker>
    <marker
       style="overflow:visible"
       id="marker1207-6"
       refX="0"
       refY="0"
       orient="auto">
      <path
         transform="matrix(-0.8,0,0,-0.8,-10,0)"
         style="fill:#000000;fill-opacity:1;fill-rule:evenodd;stroke:#000000;stroke-width:1.00000003pt;stroke-opacity:1"
         d="M 0,0 5,-5 -12.5,0 5,5 Z"
         id="path1205-7" />
    </marker>
  </defs>
  <metadata
     id="metadata5">
    <rdf:RDF>
      <cc:Work
         rdf:about="">
        <dc:format>image/svg+xml</dc:format>
        <dc:type
           rdf:resource="http://purl.org/dc/dcmitype/StillImage" />
        <dc:title></dc:title>
      </cc:Work>
    </rdf:RDF>
  </metadata>
  <g
     transform="translate(-82.291954,-26.225078)"
     id="layer1">
    <circle
       r="4.1426778"
       cy="31.473095"
       cx="138.27432"
       id="path832"
       style="fill:#000000;fill-opacity:1;stroke-width:0.26458332" />
    <circle
       r="4.1426778"
       cy="53.7901"
       cx="169.41122"
       id="path832-7"
       style="fill:#000000;fill-opacity:1;stroke-width:0.26458332" />
    <circle
       r="4.1426778"
       cy="88.203018"
       cx="159.94934"
       id="path832-5"
       style="fill:#000000;fill-opacity:1;stroke-width:0.26458332" />
    <circle
       r="4.1426778"
       cy="40.688328"
       cx="96.44574"
       id="path832-3"
       style="fill:#000000;fill-opacity:1;stroke-width:0.26458332" />
    <circle
       r="4.1426778"
       cy="96.55323"
       cx="125.04453"
       id="path832-56"
       style="fill:#000000;fill-opacity:1;stroke-width:0.26458332" />
    <rect
       y="59.348846"
       x="125.13299"
       height="7.4835467"
       width="7.4835467"
       id="rect884-9"
       style="fill:#bd1f33;fill-opacity:1;stroke-width:0.26458332" />
    <circle
       r="4.1426778"
       cy="84.820915"
       cx="90.138802"
       id="path832-5-3"
       style="fill:#000000;fill-opacity:1;stroke-width:0.26458332" />
    <path
       id="path2784-3"
       d="m 134.73941,68.551504 20.46702,15.174649"
       style="fill:none;fill-rule:evenodd;stroke:#000000;stroke-width:0.45253477;stroke-linecap:butt;stroke-linejoin:miter;stroke-miterlimit:4;stroke-dasharray:none;stroke-opacity:1;marker-end:url(#marker1295)" />
    <path
       id="path3113-5"
       d="m 125.86603,91.002019 2.27179,-21.114295"
       style="fill:none;fill-rule:evenodd;stroke:#000000;stroke-width:0.5;stroke-linecap:butt;stroke-linejoin:miter;stroke-miterlimit:4;stroke-dasharray:none;stroke-opacity:1;marker-start:url(#marker1461)" />
    <path
       id="path3517"
       d="M 95.1944,81.382793 122.55505,65.222607"
       style="fill:none;fill-rule:evenodd;stroke:#000000;stroke-width:0.47695827;stroke-linecap:butt;stroke-linejoin:miter;stroke-miterlimit:4;stroke-dasharray:none;stroke-opacity:1;marker-start:url(#marker1561)" />
    <path
       id="path3774"
       d="m 101.4592,44.245167 21.73364,14.2686"
       style="fill:none;fill-rule:evenodd;stroke:#000000;stroke-width:0.5;stroke-linecap:butt;stroke-linejoin:miter;stroke-miterlimit:4;stroke-dasharray:none;stroke-opacity:1;marker-start:url(#marker927)" />
    <path
       id="path4021-9"
       d="m 136.4191,37.351659 -4.80639,19.733776"
       style="fill:none;fill-rule:evenodd;stroke:#000000;stroke-width:0.48511937;stroke-linecap:butt;stroke-linejoin:miter;stroke-miterlimit:4;stroke-dasharray:none;stroke-opacity:1;marker-start:url(#marker1111)" />
    <path
       id="path4156-1"
       d="m 134.929,61.121803 28.91518,-6.047621"
       style="fill:none;fill-rule:evenodd;stroke:#000000;stroke-width:0.5;stroke-linecap:butt;stroke-linejoin:miter;stroke-miterlimit:4;stroke-dasharray:none;stroke-opacity:1;marker-end:url(#marker4181)" />
  </g>
</svg>
