<?xml version="1.0" encoding="UTF-8" standalone="no"?>
<svg
   xmlns:dc="http://purl.org/dc/elements/1.1/"
   xmlns:cc="http://creativecommons.org/ns#"
   xmlns:rdf="http://www.w3.org/1999/02/22-rdf-syntax-ns#"
   xmlns:svg="http://www.w3.org/2000/svg"
   xmlns="http://www.w3.org/2000/svg"
   xmlns:xlink="http://www.w3.org/1999/xlink"
   xmlns:sodipodi="http://sodipodi.sourceforge.net/DTD/sodipodi-0.dtd"
   xmlns:inkscape="http://www.inkscape.org/namespaces/inkscape"
   version="1.1"
   width="400"
   height="400"
   viewBox="0 0 1750 1748.0315"
   id="svg11"
   sodipodi:docname="cogs.svg"
   inkscape:version="0.92.4 5da689c313, 2019-01-14">
  <metadata
     id="metadata15">
    <rdf:RDF>
      <cc:Work
         rdf:about="">
        <dc:format>image/svg+xml</dc:format>
        <dc:type
           rdf:resource="http://purl.org/dc/dcmitype/StillImage" />
        <dc:title></dc:title>
      </cc:Work>
    </rdf:RDF>
  </metadata>
  <sodipodi:namedview
     pagecolor="#ffffff"
     bordercolor="#666666"
     borderopacity="1"
     objecttolerance="10"
     gridtolerance="10"
     guidetolerance="10"
     inkscape:pageopacity="0"
     inkscape:pageshadow="2"
     inkscape:window-width="3200"
     inkscape:window-height="1667"
     id="namedview13"
     showgrid="false"
     fit-margin-top="0"
     fit-margin-left="0"
     fit-margin-right="0"
     fit-margin-bottom="0"
     inkscape:zoom="2"
     inkscape:cx="-110.0329"
     inkscape:cy="121.50917"
     inkscape:window-x="0"
     inkscape:window-y="72"
     inkscape:window-maximized="1"
     inkscape:current-layer="svg11" />
  <defs
     id="defs3">
    <marker
       inkscape:stockid="TriangleOutL"
       orient="auto"
       refY="0"
       refX="0"
       id="TriangleOutL"
       style="overflow:visible"
       inkscape:isstock="true">
      <path
         id="path1177"
         d="M 5.77,0 -2.88,5 V -5 Z"
         style="fill:#2088ff;fill-opacity:1;fill-rule:evenodd;stroke:#2088ff;stroke-width:1.00000003pt;stroke-opacity:1"
         transform="scale(0.8)"
         inkscape:connector-curvature="0" />
    </marker>
    <marker
       inkscape:stockid="Arrow1Lend"
       orient="auto"
       refY="0"
       refX="0"
       id="Arrow1Lend"
       style="overflow:visible"
       inkscape:isstock="true">
      <path
         id="path841"
         d="M 0,0 5,-5 -12.5,0 5,5 Z"
         style="fill:#000000;fill-opacity:1;fill-rule:evenodd;stroke:#000000;stroke-width:1.00000003pt;stroke-opacity:1"
         transform="matrix(-0.8,0,0,-0.8,-10,0)"
         inkscape:connector-curvature="0" />
    </marker>
    <inkscape:path-effect
       effect="spiro"
       id="path-effect836"
       is_visible="true" />
    <inkscape:path-effect
       effect="spiro"
       id="path-effect831"
       is_visible="true" />
    <inkscape:path-effect
       effect="spiro"
       id="path-effect827"
       is_visible="true" />
    <path
       id="c"
       d="m 26,-248 h -52 c -16,25 -17,51 -18,74 l -50,20 c -15,-21 -31,-30 -66,-43 l -37,37 c 13,35 22,51 43,66 l -20,50 c -23,1 -49,2 -74,18 v 52 c 25,16 51,17 74,18 l 20,50 c -21,15 -30,31 -43,66 l 37,37 c 35,-13 51,-22 66,-43 l 50,20 c 1,23 2,49 18,74 h 52 c 16,-25 17,-51 18,-74 l 50,-20 c 15,21 31,30 66,43 l 37,-37 C 184,125 175,109 154,94 l 20,-50 c 23,-1 49,-2 74,-18 v -52 c -25,-16 -51,-17 -74,-18 l -20,-50 c 21,-15 30,-31 43,-66 l -37,-37 c -35,13 -51,22 -66,43 l -50,-20 c -1,-23 -2,-49 -18,-74 z M 0,-80 c 44,0 80,36 80,80 0,44 -36,80 -80,80 -44,0 -80,-36 -80,-80 0,-44 36,-80 80,-80 z"
       inkscape:connector-curvature="0" />
    <marker
       inkscape:stockid="Arrow1Lend"
       orient="auto"
       refY="0"
       refX="0"
       id="Arrow1Lend-3"
       style="overflow:visible"
       inkscape:isstock="true">
      <path
         inkscape:connector-curvature="0"
         id="path841-6"
         d="M 0,0 5,-5 -12.5,0 5,5 Z"
         style="fill:#000000;fill-opacity:1;fill-rule:evenodd;stroke:#000000;stroke-width:1.00000003pt;stroke-opacity:1"
         transform="matrix(-0.8,0,0,-0.8,-10,0)" />
    </marker>
    <inkscape:path-effect
       effect="spiro"
       id="path-effect827-7"
       is_visible="true" />
  </defs>
  <use
     xlink:href="#c"
     transform="translate(749.34421,529.00521)"
     id="use5"
     style="fill:#2088ff;fill-opacity:1"
     x="0"
     y="0"
     width="100%"
     height="100%" />
  <use
     xlink:href="#c"
     transform="rotate(22.5,-1569.2417,3067.2757)"
     id="use7"
     style="fill:#50a0ff;fill-opacity:1"
     x="0"
     y="0"
     width="100%"
     height="100%" />
  <use
     xlink:href="#c"
     transform="translate(749.34421,1139.0052)"
     id="use9"
     style="fill:#79b8ff;fill-opacity:1"
     x="0"
     y="0"
     width="100%"
     height="100%" />
  <path
     style="fill:none;stroke:#2088ff;stroke-width:47.248806;stroke-linecap:butt;stroke-linejoin:miter;stroke-miterlimit:4;stroke-dasharray:none;stroke-opacity:1"
     d="m 1124.4636,640.5337 c 18.2339,-49.6006 25.8211,-103.08536 22.1015,-155.80024 -5.1003,-72.28229 -31.707,-142.91256 -75.5648,-200.5948 C 1027.1426,226.45642 966.19617,181.93582 897.90835,157.6971 829.62052,133.45839 754.24415,129.59132 683.83433,146.71436 c -70.40983,17.12305 -135.5924,55.1728 -185.12294,108.06389 -49.53055,52.8911 -83.22566,120.42768 -95.69641,191.80851 -12.47076,71.38083 -3.67099,146.34158 24.99195,212.89365 28.66294,66.55208 77.08291,124.44903 137.51602,164.4313 60.43311,39.98227 132.65557,61.90181 205.11673,62.25298 l 389.14652,0.15891"
     id="path825"
     inkscape:connector-curvature="0"
     inkscape:path-effect="#path-effect827"
     inkscape:original-d="m 1124.4636,640.5337 c 290.6958,93.96743 118.6268,-158.309 22.1015,-155.80024 -255.28345,6.635 -69.0623,438.36976 -375.92542,401.43123 l 389.14652,0.15891"
     transform="matrix(1.8518986,0,0,1.8518986,-624.53341,-112.72193)"
     sodipodi:nodetypes="cscc" />
  <path
     style="fill:none;stroke:#2088ff;stroke-width:16.53708267;stroke-linecap:butt;stroke-linejoin:miter;stroke-miterlimit:4;stroke-dasharray:none;stroke-opacity:1;marker-end:url(#TriangleOutL)"
     d="m 1129.0099,886.16469 30.7763,0.15891"
     id="path825-5"
     inkscape:connector-curvature="0"
     inkscape:path-effect="#path-effect827-7"
     inkscape:original-d="m 1129.0099,886.16469 30.7763,0.15891"
     transform="matrix(1.8518986,0,0,1.8518986,-624.53341,-112.72193)"
     sodipodi:nodetypes="cc" />
</svg>
